# xmcd
#
# Track frame offsets: 
#        150
#        13047
#        25470
#        39543
#        56004
#        68490
#        82127
#        98387
#        107784
#        124200
#
# Disc length: 1875 seconds
#
# Revision: 0
# Processed by: cddbd v1.5.2PL0 Copyright (c) Steve Scherf et al.
# Submitted via: ExactAudioCopy v1.0b3
#
DISCID=7e07510a
DTITLE=Sassparilla - Hullabaloo
DYEAR=2014
DGENRE=Americana
TTITLE0=Through the Fence
TTITLE1=Early in the Morning
TTITLE2=Cocaine
TTITLE3=We Are Bold
TTITLE4=It Ain't Easy
TTITLE5=Folks Like Us
TTITLE6=The Wicked Take Care of Their Own
TTITLE7=Why You Makin it Hard
TTITLE8=The Devil
TTITLE9=The Hoot Song
EXTD=
EXTT0=
EXTT1=
EXTT2=
EXTT3=
EXTT4=
EXTT5=
EXTT6=
EXTT7=
EXTT8=
EXTT9=
PLAYORDER=
